<?xml version="1.0" encoding="utf-8"?>
<svg xmlns="http://www.w3.org/2000/svg" viewBox="92 86.3 197 43" xmlns:bx="https://boxy-svg.com" width="197px" height="43px"><defs><bx:export><bx:file format="svg" href="#object-0"/><bx:file format="svg" path="Untitled 2.svg" normalization="{&quot;convertTextsToPaths&quot;:true}"/></bx:export><filter id="drop-shadow-filter-0" bx:preset="drop-shadow 1 0 4 2 0.5 rgba(0,0,0,0.3)" color-interpolation-filters="sRGB" x="-50%" y="-50%" width="200%" height="200%"><feGaussianBlur in="SourceAlpha" stdDeviation="2"/><feOffset dx="0" dy="4"/><feComponentTransfer result="offsetblur"><feFuncA id="spread-ctrl" type="linear" slope="1"/></feComponentTransfer><feFlood flood-color="rgba(0,0,0,0.3)"/><feComposite in2="offsetblur" operator="in"/><feMerge><feMergeNode/><feMergeNode in="SourceGraphic"/></feMerge></filter></defs><path d="M 120.97 106.89 Q 120.97 110.57 119.3 112.76 Q 117.63 114.95 114.82 114.95 Q 112.21 114.95 110.65 113.23 L 110.65 120.75 L 107.09 120.75 L 107.09 98.81 L 110.37 98.81 L 110.52 100.42 Q 112.08 98.51 114.78 98.51 Q 117.68 98.51 119.33 100.67 Q 120.97 102.83 120.97 106.67 Z M 117.43 106.58 Q 117.43 104.21 116.48 102.82 Q 115.54 101.43 113.78 101.43 Q 111.6 101.43 110.65 103.23 L 110.65 110.26 Q 111.61 112.11 113.81 112.11 Q 115.51 112.11 116.47 110.74 Q 117.43 109.37 117.43 106.58 Z M 125.01 106.58 Q 125.01 104.25 125.93 102.39 Q 126.85 100.52 128.52 99.52 Q 130.19 98.51 132.36 98.51 Q 135.57 98.51 137.57 100.58 Q 139.57 102.64 139.73 106.06 L 139.74 106.89 Q 139.74 109.24 138.84 111.08 Q 137.94 112.93 136.26 113.94 Q 134.59 114.95 132.39 114.95 Q 129.03 114.95 127.02 112.71 Q 125.01 110.48 125.01 106.76 Z M 128.57 106.89 Q 128.57 109.34 129.58 110.72 Q 130.59 112.11 132.39 112.11 Q 134.19 112.11 135.19 110.7 Q 136.2 109.29 136.2 106.58 Q 136.2 104.18 135.17 102.78 Q 134.13 101.37 132.36 101.37 Q 130.62 101.37 129.59 102.75 Q 128.57 104.14 128.57 106.89 Z M 143.79 106.58 Q 143.79 104.25 144.71 102.39 Q 145.63 100.52 147.3 99.52 Q 148.97 98.51 151.14 98.51 Q 154.35 98.51 156.35 100.58 Q 158.35 102.64 158.51 106.06 L 158.52 106.89 Q 158.52 109.24 157.62 111.08 Q 156.72 112.93 155.04 113.94 Q 153.37 114.95 151.17 114.95 Q 147.82 114.95 145.8 112.71 Q 143.79 110.48 143.79 106.76 Z M 147.35 106.89 Q 147.35 109.34 148.36 110.72 Q 149.37 112.11 151.17 112.11 Q 152.97 112.11 153.98 110.7 Q 154.98 109.29 154.98 106.58 Q 154.98 104.18 153.95 102.78 Q 152.91 101.37 151.14 101.37 Q 149.4 101.37 148.37 102.75 Q 147.35 104.14 147.35 106.89 Z" style="text-wrap-mode: nowrap; filter: url(&quot;#drop-shadow-filter-0&quot;);"/><path d="M 170.55 103.43 L 175.46 93.33 L 179.56 93.33 L 172.41 106.8 L 172.41 114.65 L 168.69 114.65 L 168.69 106.8 L 161.53 93.33 L 165.65 93.33 Z M 193.31 109.69 L 185.05 109.69 L 183.32 114.65 L 179.47 114.65 L 187.53 93.33 L 190.85 93.33 L 198.93 114.65 L 195.06 114.65 Z M 186.09 106.7 L 192.27 106.7 L 189.18 97.85 Z M 207.8 103.43 L 212.71 93.33 L 216.81 93.33 L 209.66 106.8 L 209.66 114.65 L 205.94 114.65 L 205.94 106.8 L 198.78 93.33 L 202.9 93.33 Z" style="text-wrap-mode: nowrap; filter: url(&quot;#drop-shadow-filter-0&quot;); fill: rgb(98, 164, 227);"/><path d="M 218.88 106.58 Q 218.88 104.25 219.8 102.39 Q 220.73 100.52 222.4 99.52 Q 224.07 98.51 226.23 98.51 Q 229.44 98.51 231.44 100.58 Q 233.44 102.64 233.6 106.06 L 233.62 106.89 Q 233.62 109.24 232.72 111.08 Q 231.82 112.93 230.14 113.94 Q 228.46 114.95 226.26 114.95 Q 222.91 114.95 220.9 112.71 Q 218.88 110.48 218.88 106.76 Z M 222.44 106.89 Q 222.44 109.34 223.45 110.72 Q 224.46 112.11 226.26 112.11 Q 228.07 112.11 229.07 110.7 Q 230.07 109.29 230.07 106.58 Q 230.07 104.18 229.04 102.78 Q 228.01 101.37 226.23 101.37 Q 224.49 101.37 223.47 102.75 Q 222.44 104.14 222.44 106.89 Z M 237.65 106.58 Q 237.65 104.25 238.57 102.39 Q 239.49 100.52 241.16 99.52 Q 242.83 98.51 245 98.51 Q 248.21 98.51 250.21 100.58 Q 252.21 102.64 252.37 106.06 L 252.38 106.89 Q 252.38 109.24 251.48 111.08 Q 250.58 112.93 248.9 113.94 Q 247.23 114.95 245.03 114.95 Q 241.68 114.95 239.66 112.71 Q 237.65 110.48 237.65 106.76 Z M 241.21 106.89 Q 241.21 109.34 242.22 110.72 Q 243.23 112.11 245.03 112.11 Q 246.83 112.11 247.83 110.7 Q 248.84 109.29 248.84 106.58 Q 248.84 104.18 247.81 102.78 Q 246.77 101.37 245 101.37 Q 243.26 101.37 242.23 102.75 Q 241.21 104.14 241.21 106.89 Z M 256.43 106.6 Q 256.43 102.88 258.13 100.7 Q 259.83 98.51 262.73 98.51 Q 265.38 98.51 266.93 100.37 L 267.14 98.81 L 270.3 98.81 L 270.3 120.75 L 266.74 120.75 L 266.74 113.31 Q 265.19 114.95 262.7 114.95 Q 259.86 114.95 258.14 112.73 Q 256.43 110.51 256.43 106.6 Z M 259.99 106.91 Q 259.99 109.34 260.95 110.72 Q 261.91 112.11 263.61 112.11 Q 265.72 112.11 266.74 110.3 L 266.74 103.1 Q 265.72 101.37 263.64 101.37 Q 261.94 101.37 260.96 102.73 Q 259.99 104.09 259.99 106.91 Z" style="text-wrap-mode: nowrap; filter: url(&quot;#drop-shadow-filter-0&quot;);"/></svg>